<svg width="1800" height="1400" viewBox="0 0 1220 1024" fill="none" xmlns="http://www.w3.org/2000/svg">
<path d="M1222.42 7.26241L297.609 7.26237C297.609 7.26237 131.229 85.2972 150.536 285.926C169.843 486.554 273.831 528.164 82.1825 770.403C82.1825 770.403 1.97262 855.859 4.92061 1011.9L1222.42 1011.9L1222.42 7.26241Z" fill="white" fill-opacity="0.35"/>
<path d="M-4.28715e-05 980.785C-3.72851e-05 852.983 58.9139 777.252 59.5925 776.444C178.551 625.015 155.865 532.185 124.42 403.737C116.083 369.669 107.454 334.406 100.215 294.197C64.7956 97.6777 167.822 0.969621 168.889 -4.5871e-05L171.054 2.3918C170.02 3.32914 68.3182 99.0029 103.382 293.583C110.621 333.727 119.217 368.893 127.555 402.929C159.194 532.282 182.042 625.726 62.1132 778.416C61.37 779.353 -10.0505 871.245 5.42929 1023.64L2.22984 1023.97C0.678621 1009 -4.34748e-05 994.587 -4.28715e-05 980.785Z" fill="#F9F0E3"/>
</svg>
